<?xml version="1.0" standalone="no"?>
<!DOCTYPE svg PUBLIC "-//W3C//DTD SVG 20010904//EN"
 "http://www.w3.org/TR/2001/REC-SVG-20010904/DTD/svg10.dtd">
<svg version="1.0" xmlns="http://www.w3.org/2000/svg"
 width="260.000000pt" height="260.000000pt" viewBox="0 0 260.000000 260.000000"
 preserveAspectRatio="xMidYMid meet">
<metadata>
Created by potrace 1.11, written by Peter Selinger 2001-2013
</metadata>
<g transform="translate(0.000000,260.000000) scale(0.100000,-0.100000)"
fill="#000000" stroke="none">
<path d="M1644 2301 c-251 -68 -512 -298 -710 -627 -36 -60 -84 -148 -107
-196 -38 -80 -44 -88 -70 -88 -94 0 -170 -96 -169 -214 0 -61 19 -105 58 -135
l26 -21 -20 -83 c-34 -135 -52 -265 -52 -378 0 -128 17 -194 65 -245 34 -36
35 -36 104 -32 89 5 116 23 158 108 33 66 39 99 77 385 8 61 21 128 28 150 13
40 14 40 58 37 91 -6 372 -60 386 -75 1 -1 -2 -36 -6 -77 -13 -112 -11 -278 4
-341 29 -126 107 -200 193 -184 102 19 142 110 163 370 5 71 13 132 18 135 4
4 26 12 49 19 43 12 79 47 89 88 11 44 -6 91 -51 141 l-44 49 29 174 c43 250
78 508 85 629 12 183 -21 323 -91 391 -33 32 -39 34 -117 36 -56 2 -105 -3
-153 -16z m26 -364 c0 -2 -27 -138 -59 -303 -33 -164 -63 -322 -67 -350 -9
-76 -11 -77 -80 -53 -32 11 -115 33 -183 49 -68 16 -126 31 -129 34 -10 11 86
190 149 279 34 48 98 124 141 168 91 92 228 198 228 176z"/>
</g>
</svg>
